<?xml version="1.0" standalone="no"?>
<!DOCTYPE svg PUBLIC "-//W3C//DTD SVG 20010904//EN"
 "http://www.w3.org/TR/2001/REC-SVG-20010904/DTD/svg10.dtd">
<svg version="1.0" xmlns="http://www.w3.org/2000/svg"
 width="704.000000pt" height="704.000000pt" viewBox="0 0 704.000000 704.000000"
 preserveAspectRatio="xMidYMid meet">
<metadata>
Created by potrace 1.14, written by Peter Selinger 2001-2017
</metadata>
<g transform="translate(0.000000,704.000000) scale(0.100000,-0.100000)"
fill="#000000" stroke="none">
<path d="M3003 7025 c-175 -39 -325 -168 -498 -425 -126 -189 -267 -527 -297
-713 -6 -40 -16 -77 -22 -83 -6 -6 -60 -23 -120 -38 -519 -128 -915 -355
-1033 -592 -36 -74 -38 -83 -38 -173 0 -89 3 -101 34 -165 43 -89 164 -213
283 -290 106 -69 275 -151 421 -205 103 -37 111 -39 143 -25 18 8 49 14 68 14
39 0 36 9 61 -153 73 -466 228 -838 521 -1247 44 -62 196 -210 289 -281 50
-38 142 -112 205 -165 197 -164 512 -362 728 -460 l93 -42 -157 -141 c-86 -78
-160 -141 -164 -141 -4 0 -237 206 -517 458 -280 252 -517 461 -527 465 -10 4
-36 7 -59 7 -39 0 -46 -6 -183 -142 -79 -78 -140 -146 -137 -151 3 -6 1 -7 -5
-3 -13 8 -419 -119 -442 -138 -8 -7 -61 -27 -118 -45 -460 -143 -815 -579
-872 -1070 -7 -60 -10 -233 -8 -461 l3 -365 33 -67 c36 -73 87 -124 161 -160
l46 -23 2625 0 2625 0 46 23 c74 36 125 87 161 160 l33 67 0 420 c0 368 -2
430 -18 505 -70 327 -253 606 -530 809 -90 66 -191 116 -320 159 -64 22 -123
44 -130 50 -6 5 -106 40 -222 77 l-210 67 -146 144 c-141 140 -147 144 -188
144 -23 0 -50 -4 -60 -10 -16 -8 -20 -3 -30 48 -6 31 -14 98 -18 148 l-6 90
61 82 c230 311 404 752 467 1184 24 163 22 158 56 158 16 0 46 -7 66 -15 36
-15 40 -15 138 21 139 51 329 142 427 206 295 193 393 412 284 634 -117 235
-515 463 -1032 590 -60 15 -114 32 -120 38 -6 6 -16 43 -22 83 -30 186 -171
524 -297 713 -177 263 -325 388 -507 426 -113 24 -189 3 -343 -91 -49 -31
-107 -60 -127 -66 -53 -14 -96 0 -203 66 -153 94 -239 116 -352 90z m289
-1805 c343 -59 647 -164 834 -291 l42 -28 136 153 135 154 43 -9 c24 -5 53
-11 65 -14 26 -6 30 -19 68 -209 33 -161 135 -706 135 -717 0 -5 6 -9 14 -9
17 0 -8 -114 -60 -270 -37 -114 -153 -357 -181 -382 -13 -12 -92 -24 -298 -47
-339 -38 -352 -38 -415 -6 -69 35 -121 41 -174 21 -24 -9 -51 -25 -60 -35 -17
-18 -18 -18 -43 5 -32 29 -96 48 -141 40 -19 -3 -63 -18 -97 -35 l-64 -29
-108 10 c-59 5 -213 22 -342 36 l-233 27 -49 80 c-62 103 -139 296 -180 453
l-33 124 33 181 c43 238 129 671 141 719 12 41 11 41 130 63 299 54 450 57
702 15z m416 -2000 c40 -12 118 -25 190 -30 68 -5 126 -10 128 -13 6 -6 -106
-35 -208 -54 -66 -12 -146 -17 -278 -17 -188 0 -283 12 -425 52 l-60 17 50 6
c28 4 76 8 108 8 124 2 275 49 320 99 19 21 19 21 63 -13 25 -19 75 -44 112
-55z"/>
</g>
</svg>
